<svg width="199" height="39" viewBox="0 0 199 39" fill="none" xmlns="http://www.w3.org/2000/svg">
<path d="M20.78 38L19.124 31.146H9.83198L8.22198 38H0.401978L10.016 6.12197H19.17L28.784 38H20.78ZM11.12 25.672H17.836L14.478 11.596L11.12 25.672Z" fill="black"/>
<path d="M57.9868 12.792C59.9188 12.792 61.4675 13.4513 62.6328 14.77C63.7981 16.058 64.3808 17.852 64.3808 20.152V38H57.1128V21.394C57.1128 19.2166 56.4228 18.128 55.0428 18.128C54.2761 18.128 53.6015 18.3886 53.0188 18.91C52.4361 19.4313 51.8688 20.2286 51.3168 21.302V38H44.0488V21.394C44.0488 19.2166 43.3588 18.128 41.9788 18.128C41.2428 18.128 40.5681 18.404 39.9548 18.956C39.3721 19.4773 38.8048 20.2593 38.2528 21.302V38H30.9848V13.574H37.3328L37.8388 16.426C38.7895 15.1993 39.8321 14.2946 40.9668 13.712C42.1321 13.0986 43.4508 12.792 44.9228 12.792C46.3028 12.792 47.4835 13.1293 48.4648 13.804C49.4768 14.4786 50.2128 15.4293 50.6728 16.656C51.6541 15.3373 52.7275 14.3713 53.8928 13.758C55.0888 13.114 56.4535 12.792 57.9868 12.792Z" fill="black"/>
<path d="M83.6882 12.792C86.6015 12.792 88.8402 13.942 90.4042 16.242C91.9682 18.5113 92.7502 21.7006 92.7502 25.81C92.7502 28.3246 92.3515 30.5633 91.5542 32.526C90.7875 34.4886 89.6682 36.022 88.1962 37.126C86.7549 38.23 85.0375 38.782 83.0442 38.782C81.7255 38.782 80.5142 38.506 79.4102 37.954C78.3369 37.402 77.4169 36.6353 76.6502 35.654L76.2822 38H69.8422V3.86797L77.1102 3.08597V16.058C77.8462 15.046 78.7815 14.2486 79.9162 13.666C81.0815 13.0833 82.3389 12.792 83.6882 12.792ZM80.9282 33.492C83.7802 33.492 85.2062 30.9313 85.2062 25.81C85.2062 22.8966 84.8689 20.888 84.1942 19.784C83.5195 18.68 82.5382 18.128 81.2502 18.128C79.6249 18.128 78.2449 19.0786 77.1102 20.98V31.146C77.5702 31.882 78.1222 32.4646 78.7662 32.894C79.4409 33.2926 80.1615 33.492 80.9282 33.492Z" fill="black"/>
<path d="M110.537 12.884C111.427 12.884 112.239 12.9913 112.975 13.206L111.825 20.244C110.905 20.0293 110.169 19.922 109.617 19.922C108.176 19.922 107.072 20.428 106.305 21.44C105.569 22.4213 104.987 23.9086 104.557 25.902V38H97.2895V13.574H103.637L104.235 18.312C104.787 16.6253 105.615 15.3066 106.719 14.356C107.854 13.3746 109.127 12.884 110.537 12.884Z" fill="black"/>
<path d="M124.94 12.792C128.681 12.792 131.61 13.942 133.726 16.242C135.842 18.5113 136.9 21.7006 136.9 25.81C136.9 28.4166 136.409 30.7013 135.428 32.664C134.477 34.596 133.097 36.0986 131.288 37.172C129.509 38.2453 127.393 38.782 124.94 38.782C121.229 38.782 118.3 37.6473 116.154 35.378C114.038 33.078 112.98 29.8733 112.98 25.764C112.98 23.1573 113.455 20.888 114.406 18.956C115.387 16.9933 116.767 15.4753 118.546 14.402C120.355 13.3286 122.486 12.792 124.94 12.792ZM124.94 18.128C123.468 18.128 122.364 18.7566 121.628 20.014C120.892 21.2406 120.524 23.1573 120.524 25.764C120.524 28.432 120.876 30.3793 121.582 31.606C122.318 32.8326 123.437 33.446 124.94 33.446C126.412 33.446 127.516 32.8326 128.252 31.606C128.988 30.3486 129.356 28.4166 129.356 25.81C129.356 23.142 128.988 21.1946 128.252 19.968C127.546 18.7413 126.442 18.128 124.94 18.128Z" fill="black"/>
<path d="M149.825 12.792C151.573 12.792 153.214 13.0526 154.747 13.574C156.28 14.0953 157.63 14.8313 158.795 15.782L156.127 19.876C154.134 18.6186 152.125 17.99 150.101 17.99C149.15 17.99 148.414 18.1586 147.893 18.496C147.402 18.8026 147.157 19.2473 147.157 19.83C147.157 20.29 147.264 20.6733 147.479 20.98C147.724 21.256 148.2 21.5473 148.905 21.854C149.61 22.1606 150.699 22.5286 152.171 22.958C154.716 23.694 156.602 24.66 157.829 25.856C159.086 27.0213 159.715 28.6466 159.715 30.732C159.715 32.388 159.24 33.8293 158.289 35.056C157.338 36.252 156.035 37.172 154.379 37.816C152.723 38.46 150.883 38.782 148.859 38.782C146.804 38.782 144.888 38.46 143.109 37.816C141.361 37.172 139.874 36.2826 138.647 35.148L142.189 31.192C144.244 32.7866 146.406 33.584 148.675 33.584C149.779 33.584 150.638 33.3846 151.251 32.986C151.895 32.5873 152.217 32.02 152.217 31.284C152.217 30.7013 152.094 30.2413 151.849 29.904C151.604 29.5666 151.128 29.26 150.423 28.984C149.718 28.6773 148.598 28.3093 147.065 27.88C144.642 27.1746 142.833 26.1933 141.637 24.936C140.441 23.6786 139.843 22.1146 139.843 20.244C139.843 18.8333 140.242 17.576 141.039 16.472C141.867 15.3373 143.032 14.448 144.535 13.804C146.068 13.1293 147.832 12.792 149.825 12.792Z" fill="black"/>
<path d="M170.727 13.574V38H163.459V13.574H170.727ZM167.047 0.69397C168.305 0.69397 169.332 1.09264 170.129 1.88997C170.957 2.65664 171.371 3.63797 171.371 4.83397C171.371 6.02997 170.957 7.02664 170.129 7.82397C169.332 8.59064 168.305 8.97397 167.047 8.97397C165.79 8.97397 164.763 8.59064 163.965 7.82397C163.168 7.02664 162.769 6.02997 162.769 4.83397C162.769 3.63797 163.168 2.65664 163.965 1.88997C164.763 1.09264 165.79 0.69397 167.047 0.69397Z" fill="black"/>
<path d="M187.022 12.792C190.763 12.792 193.692 13.942 195.808 16.242C197.924 18.5113 198.982 21.7006 198.982 25.81C198.982 28.4166 198.491 30.7013 197.51 32.664C196.559 34.596 195.179 36.0986 193.37 37.172C191.591 38.2453 189.475 38.782 187.022 38.782C183.311 38.782 180.382 37.6473 178.236 35.378C176.12 33.078 175.062 29.8733 175.062 25.764C175.062 23.1573 175.537 20.888 176.488 18.956C177.469 16.9933 178.849 15.4753 180.628 14.402C182.437 13.3286 184.568 12.792 187.022 12.792ZM187.022 18.128C185.55 18.128 184.446 18.7566 183.71 20.014C182.974 21.2406 182.606 23.1573 182.606 25.764C182.606 28.432 182.958 30.3793 183.664 31.606C184.4 32.8326 185.519 33.446 187.022 33.446C188.494 33.446 189.598 32.8326 190.334 31.606C191.07 30.3486 191.438 28.4166 191.438 25.81C191.438 23.142 191.07 21.1946 190.334 19.968C189.628 18.7413 188.524 18.128 187.022 18.128Z" fill="black"/>
</svg>
